<svg viewBox="0 0 1024 1024" version="1.1" xmlns="http://www.w3.org/2000/svg" width="200" height="200">
<path d="M681.358222 262.001778L307.712 476.728889l-58.766222-73.102222 373.674666-214.727111 58.737778 73.102222z m-2.673778 499.512889L302.421333 532.48l-59.192889 79.872L619.52 841.386667l59.164444-79.872z" fill="#333333"></path>
<path d="M256 341.333333a170.666667 170.666667 0 1 1 0 341.333334 170.666667 170.666667 0 0 1 0-341.333334zM768 0a170.666667 170.666667 0 1 1 0 341.333333 170.666667 170.666667 0 0 1 0-341.333333z m0 682.666667a170.666667 170.666667 0 1 1 0 341.333333 170.666667 170.666667 0 0 1 0-341.333333z" fill="#7dc5eb"></path>
</svg>